<svg width="62" height="62" viewBox="0 0 62 62" fill="none" xmlns="http://www.w3.org/2000/svg">
<path d="M31 31C35.7344 31 39.5714 27.1949 39.5714 22.5C39.5714 17.8051 35.7344 14 31 14C26.2656 14 22.4286 17.8051 22.4286 22.5C22.4286 27.1949 26.2656 31 31 31ZM37 33.125H35.8817C34.3951 33.8023 32.7411 34.1875 31 34.1875C29.2589 34.1875 27.6116 33.8023 26.1183 33.125H25C20.0312 33.125 16 37.1227 16 42.05V44.8125C16 46.5723 17.4397 48 19.2143 48H42.7857C44.5603 48 46 46.5723 46 44.8125V42.05C46 37.1227 41.9688 33.125 37 33.125Z" fill="#E0E0E0"/>
</svg>
