<svg width="150" height="20" viewBox="0 0 150 20" fill="none" xmlns="http://www.w3.org/2000/svg">
<path d="M3.58668 0.666587C3.28446 0.364363 2.92446 0.168807 2.50668 0.0799174C2.0889 -8.23885e-05 1.68445 0.039918 1.29334 0.199919C0.902226 0.368808 0.591114 0.626586 0.360001 0.973255C0.12 1.32881 0 1.71992 0 2.14659V17.8933C0 18.48 0.204445 18.9778 0.613336 19.3867C1.02223 19.7956 1.52001 20 2.10668 20C2.68446 20 3.17779 19.7956 3.58668 19.3867C3.99557 18.9778 4.20002 18.48 4.20002 17.8933V7.21328L8.49337 11.5066C8.90226 11.9155 9.39559 12.12 9.97337 12.12C10.56 12.12 11.0578 11.9155 11.4667 11.5066L15.7601 7.21328V17.8933C15.7601 18.48 15.9645 18.9778 16.3734 19.3867C16.7823 19.7956 17.2756 20 17.8534 20C18.4312 20 18.9245 19.7956 19.3334 19.3867C19.7512 18.9778 19.9601 18.48 19.9601 17.8933V2.14659C19.9601 1.71992 19.8401 1.32881 19.6001 0.973255C19.369 0.626586 19.0534 0.368808 18.6534 0.199919C18.2623 0.039918 17.8579 -8.23885e-05 17.4401 0.0799174C17.0312 0.168807 16.6756 0.364363 16.3734 0.666587L9.97337 7.05328L3.58668 0.666587Z" fill="#2D3436"/>
<path d="M24.6607 7.91995C24.0741 7.91995 23.5763 8.1244 23.1674 8.53329C22.7585 8.94218 22.5541 9.43996 22.5541 10.0266C22.5541 10.6044 22.7585 11.0977 23.1674 11.5066C23.5763 11.9155 24.0741 12.12 24.6607 12.12H32.5274C33.1141 12.12 33.6119 11.9155 34.0208 11.5066C34.4297 11.0977 34.6341 10.6044 34.6341 10.0266C34.6341 9.43996 34.4297 8.94218 34.0208 8.53329C33.6119 8.1244 33.1141 7.91995 32.5274 7.91995H24.6607Z" fill="#2D3436"/>
<path d="M46.1858 20C48.9414 20 51.2925 19.0267 53.2392 17.08C53.6481 16.6711 53.8525 16.1733 53.8525 15.5866C53.8525 15.0089 53.6481 14.5155 53.2392 14.1066C52.8303 13.6978 52.337 13.4933 51.7592 13.4933C51.1725 13.4933 50.6747 13.6978 50.2658 14.1066C49.1369 15.2355 47.7769 15.8 46.1858 15.8C44.5947 15.8 43.2347 15.2355 42.1058 14.1066C40.9769 12.9777 40.4125 11.6177 40.4125 10.0266C40.4125 8.42662 40.9769 7.06217 42.1058 5.93327C43.2347 4.80438 44.5947 4.23993 46.1858 4.23993C47.7769 4.23993 49.1369 4.80438 50.2658 5.93327C50.6747 6.35105 51.1725 6.55994 51.7592 6.55994C52.337 6.55994 52.8303 6.35105 53.2392 5.93327C53.6481 5.52438 53.8525 5.03105 53.8525 4.45327C53.8525 3.87549 53.6481 3.38215 53.2392 2.97326C51.2925 1.0177 48.9414 0.039917 46.1858 0.039917C43.4302 0.039917 41.0791 1.0177 39.1325 2.97326C37.1858 4.91105 36.2124 7.26217 36.2124 10.0266C36.2124 12.7822 37.1858 15.1333 39.1325 17.08C41.0791 19.0267 43.4302 20 46.1858 20Z" fill="#2D3436"/>
<path d="M65.0796 6.83994L67.5863 11.8533H62.573L65.0796 6.83994ZM56.2663 19.7733C56.7818 20.0311 57.3152 20.0667 57.8663 19.88C58.4174 19.7022 58.8218 19.3511 59.0796 18.8267L60.4663 16.0533H69.6797L71.0797 18.8267C71.2574 19.1911 71.5197 19.48 71.8663 19.6933C72.2041 19.8978 72.5686 20 72.9597 20C73.2886 20 73.5997 19.9244 73.893 19.7733C74.4086 19.5156 74.7597 19.1111 74.9464 18.56C75.133 18.0089 75.093 17.4755 74.8263 16.96L66.9596 1.19992C66.7819 0.844365 66.5241 0.55992 66.1863 0.346585C65.8485 0.14214 65.4796 0.039917 65.0796 0.039917C64.6796 0.039917 64.3107 0.14214 63.973 0.346585C63.6352 0.55992 63.3774 0.844365 63.1996 1.19992L55.3196 16.96C55.0618 17.4755 55.0263 18.0089 55.2129 18.56C55.3907 19.1111 55.7418 19.5156 56.2663 19.7733Z" fill="#2D3436"/>
<path d="M90.816 7.39995C90.816 8.26217 90.5049 9.0044 89.8827 9.62662C89.2693 10.24 88.5271 10.5466 87.656 10.5466H81.8826V4.23993H87.656C88.5271 4.23993 89.2693 4.55105 89.8827 5.17327C90.5049 5.78661 90.816 6.52883 90.816 7.39995ZM86.7893 14.7466L91.4293 19.3867C91.8382 19.7956 92.3316 20 92.9093 20C93.4871 20 93.9849 19.7956 94.4027 19.3867C94.8116 18.9778 95.016 18.48 95.016 17.8933C95.016 17.3155 94.8116 16.8222 94.4027 16.4133L91.5893 13.6C92.6382 12.9333 93.4649 12.0622 94.0693 10.9866C94.7005 9.87551 95.016 8.67995 95.016 7.39995C95.016 5.37327 94.296 3.63993 92.856 2.19993C91.416 0.75992 89.6827 0.039917 87.656 0.039917H79.7893C79.2026 0.039917 78.7048 0.248807 78.2959 0.666587C77.8871 1.07548 77.6826 1.56881 77.6826 2.14659V17.8933C77.6826 18.48 77.8871 18.9778 78.2959 19.3867C78.7048 19.7956 79.2026 20 79.7893 20C80.3671 20 80.8604 19.7956 81.2693 19.3867C81.6782 18.9778 81.8826 18.48 81.8826 17.8933V14.7466H86.7893Z" fill="#2D3436"/>
<path d="M102.351 4.23993H105.498C107.098 4.23993 108.463 4.80883 109.591 5.94661C110.72 7.0755 111.285 8.43551 111.285 10.0266C111.285 11.6177 110.72 12.9777 109.591 14.1066C108.463 15.2355 107.098 15.8 105.498 15.8H102.351V4.23993ZM105.498 20C108.254 20 110.605 19.0267 112.551 17.08C114.507 15.1244 115.485 12.7733 115.485 10.0266C115.485 7.27106 114.507 4.91994 112.551 2.97326C110.605 1.0177 108.254 0.039917 105.498 0.039917H100.258C99.6714 0.039917 99.1737 0.248807 98.7648 0.666587C98.3559 1.07548 98.1514 1.56881 98.1514 2.14659V17.8933C98.1514 18.48 98.3559 18.9778 98.7648 19.3867C99.1737 19.7956 99.6714 20 100.258 20H105.498Z" fill="#2D3436"/>
<path d="M120.727 20C121.305 20 121.798 19.7956 122.207 19.3867C122.616 18.9778 122.82 18.48 122.82 17.8933V2.14659C122.82 1.56881 122.616 1.07548 122.207 0.666587C121.798 0.248807 121.305 0.039917 120.727 0.039917C120.14 0.039917 119.642 0.248807 119.234 0.666587C118.825 1.07548 118.62 1.56881 118.62 2.14659V17.8933C118.62 18.48 118.825 18.9778 119.234 19.3867C119.642 19.7956 120.14 20 120.727 20Z" fill="#2D3436"/>
<path d="M147.999 3.55029C146.834 1.38109 144.881 0.020826 142.903 0H142.856C141.468 0 139.505 0.622588 137.693 3.41766C135.878 0.622588 133.915 0 132.533 0H132.49C130.505 0.020826 128.551 1.38109 127.387 3.55029C126.223 5.71948 125.692 9.13275 127.69 12.2095C129.518 15.0276 132.716 17.5267 137.465 19.8505L137.693 19.9601L137.921 19.8505C142.669 17.5267 145.867 15.0276 147.696 12.2095C149.699 9.13275 149.162 5.71948 147.999 3.55029ZM142.065 10.9611C142.065 11.0869 142.015 11.2077 141.926 11.2967C141.837 11.3857 141.717 11.4357 141.591 11.4357H139.118V13.9085C139.118 13.9709 139.106 14.0327 139.082 14.0904C139.058 14.148 139.023 14.2004 138.979 14.2445C138.934 14.2886 138.882 14.3235 138.824 14.3473C138.766 14.3711 138.705 14.3832 138.642 14.3831H136.743C136.617 14.3831 136.496 14.3331 136.407 14.2441C136.318 14.1551 136.268 14.0344 136.268 13.9085V11.4302H133.795C133.67 11.4302 133.55 11.3809 133.462 11.2931C133.373 11.2053 133.322 11.086 133.321 10.9611V9.05602C133.321 8.93015 133.371 8.80943 133.46 8.72042C133.549 8.63141 133.669 8.58141 133.795 8.58141H136.268V6.1075C136.268 5.98163 136.318 5.8609 136.407 5.7719C136.496 5.68289 136.617 5.63289 136.743 5.63289H138.642C138.705 5.63274 138.766 5.64491 138.824 5.6687C138.882 5.69249 138.934 5.72742 138.979 5.77151C139.023 5.8156 139.058 5.86797 139.082 5.92562C139.106 5.98327 139.118 6.04508 139.118 6.1075V8.1901V8.58689H141.587C141.713 8.58689 141.834 8.6369 141.923 8.7259C142.012 8.81491 142.062 8.93563 142.062 9.0615L142.065 10.9611Z" fill="#24AF47"/>
<path d="M137.324 19.6203C135.924 18.7324 134.783 17.4949 133.713 16.2278C132.54 14.838 131.423 13.378 130.608 11.7579C130.482 11.5091 130.363 11.2537 130.252 10.9907C129.623 9.52954 129.242 7.90621 129.421 6.32014C129.685 3.87254 131.245 1.55976 133.206 0.120572L133.288 0.062478C133.038 0.0210656 132.786 0.000169754 132.533 0L132.49 0C130.505 0.020826 128.551 1.38109 127.387 3.55029C126.223 5.71948 125.692 9.13275 127.69 12.2095C129.518 15.0276 132.716 17.5267 137.465 19.8505L137.693 19.9601L137.803 19.9042C137.64 19.8172 137.481 19.7226 137.324 19.6203Z" fill="url(#paint0_linear)"/>
<defs>
<linearGradient id="paint0_linear" x1="128.015" y1="0.623821" x2="137.372" y2="19.9623" gradientUnits="userSpaceOnUse">
<stop stop-color="#169937"/>
<stop offset="1" stop-color="#3DCD61"/>
</linearGradient>
</defs>
</svg>
